<svg viewBox="0 0 473.899 458.745" fill="none" xmlns="http://www.w3.org/2000/svg">
<g id="Group 5">
<path id="Vector" d="M123.773 192.385L167.634 148.564L212.687 103.911L245.442 136.267L259.383 122.475L212.998 76.455L206.623 82.5052L115.875 172.813C106.299 143.78 106.583 113.4 117.872 84.8536C127.035 61.6676 142.411 41.2361 162.383 26.2728C188.506 6.68043 220.869 -2.26641 253.117 0.488023C318.688 6.09841 370.278 59.6712 373.581 125.405C374.549 144.632 370.962 163.798 363.659 182.091L315.345 133.655L289.222 107.674L253.367 143.543L181.082 216.031L160.461 236.76C145.206 224.755 132.781 210.008 123.766 192.392L123.773 192.385Z" fill="white"/>
<path id="Vector_2" d="M247.743 264.332C222.75 265.401 198.556 259.946 176.757 247.595L264.804 159.968L289.513 135.516L354.72 200.438C345.752 215.436 333.733 228.484 319.487 238.872C298.616 254.383 274.069 263.127 247.75 264.332H247.743Z" fill="white"/>
<path id="Vector_3" d="M182.185 312.281L150.472 367.532L134.216 395.949C132.849 398.345 130.223 399.076 127.679 398.941C125.134 398.805 123.341 397.046 121.838 394.501L90.1452 340.901L56.07 396.132C54.5744 398.548 51.9214 399.198 49.3497 398.907C46.9269 398.636 45.2688 396.937 43.9695 394.494L13.1563 336.631L0 312.22L18.7464 312.172L50.9063 371.579L85.9289 314.507C87.0117 312.748 89.3737 312.342 91.2889 312.579C92.8658 312.782 94.5374 314.027 95.4713 315.766L108.086 337.389L128.626 371.45L163.1 312.213L182.172 312.288L182.185 312.281Z" fill="white"/>
<path id="Vector_4" d="M370.277 398.839V382.807L426.002 382.712C442.617 382.685 458.06 370.171 456.463 352.711C455.022 336.929 439.835 328.178 424.527 328.171L370.325 328.158L370.413 312.172L428.824 312.403C438.495 312.443 447.469 315.482 455.475 320.409C465.66 326.676 472.103 336.773 473.491 348.603C475.555 366.165 469.884 382.15 454.372 391.171C445.75 396.186 436.154 398.778 425.995 398.792L370.277 398.846V398.839Z" fill="white"/>
<path id="Vector_5" d="M346.26 382.773L346.327 398.812L261.617 398.826L261.623 312.281L278.685 312.172L278.671 382.732L346.26 382.773Z" fill="white"/>
<path id="Vector_6" d="M227.346 398.819H210.447V312.254L227.319 312.172L227.346 398.819Z" fill="white"/>
<path id="Vector_7" d="M195.632 458.225L195.51 437.306L187.504 452.303L183.437 452.419L175.214 437.029L175.167 458.185L169.678 458.225V428.008L176.399 427.865L185.42 445.015L194.4 428.096L201.276 427.879L201.27 458.157L195.632 458.225Z" fill="white"/>
<path id="Vector_8" d="M360.439 458.327L354.091 447.586L347.844 447.553L347.817 458.239L342.017 458.171V428.035L357.63 428.156C362.374 428.19 365.812 431.987 366.354 436.142C366.969 440.839 364.899 445.258 359.985 446.842L366.963 458.151L360.439 458.327ZM356.019 442.572C359.017 442.538 360.797 440.04 360.567 437.496C360.337 434.951 358.402 433.083 355.573 433.09L347.776 433.11L347.878 442.666L356.026 442.565L356.019 442.572Z" fill="white"/>
<path id="Vector_9" d="M307.427 445.313L293.641 445.36L293.567 453.055L309.572 453.082L309.613 458.225L287.889 458.218V427.947L309.498 427.879L309.579 433.063L293.655 433.11L293.567 440.23L307.414 440.21L307.427 445.313Z" fill="white"/>
<path id="Vector_10" d="M132.429 451.491L118.975 451.512L116.349 458.239L110.299 458.158L122.643 428.042L129.018 428.021L141.003 458.131L135.007 458.293L132.422 451.498L132.429 451.491ZM130.541 446.666L125.803 434.945L120.951 446.7L130.541 446.666Z" fill="white"/>
<path id="Vector_11" d="M250.438 447.478C246.756 448.378 243.156 448.087 239.197 447.999L239.143 458.205L233.417 458.178V427.818L248.516 428.136C253.964 428.251 257.76 432.995 257.408 438.186C257.679 442.585 254.999 446.355 250.438 447.471V447.478ZM247 442.91C250.336 442.869 251.967 440.081 251.737 437.53C251.487 434.762 249.389 433.029 246.418 433.056L239.176 433.117L239.197 442.998L247 442.91Z" fill="white"/>
<path id="Vector_12" d="M413.063 458.232C406.823 459.457 401.017 458.009 396.523 453.61L399.9 449.624C405.253 454.794 414.64 454.598 414.816 449.867C414.863 448.642 413.699 446.91 412.339 446.49L403.954 443.925C400.469 442.856 398.066 440.169 397.944 436.839C397.822 433.51 399.365 430.275 402.763 428.779C408.522 426.241 415.405 427.405 420 431.405L416.704 435.533C413.381 432.84 409.855 431.845 405.937 433.11C404.698 433.51 403.791 435.195 403.934 436.508C404.495 441.699 423.242 438.403 420.19 451.918C419.499 454.977 416.765 457.515 413.063 458.245V458.232Z" fill="white"/>
<path id="Vector_13" d="M64.1091 450.077C68.454 454.821 75.2487 453.84 79.3769 449.475L83.1059 453.217C77.0759 460.283 65.9702 460.668 59.6019 453.833C54.3366 448.175 54.0998 438.883 59.074 432.989C65.3205 425.585 76.8052 425.815 83.1939 432.508L79.1536 436.494C75.0863 432.014 68.454 431.337 64.2715 435.73C60.6373 439.54 60.3666 446.003 64.1024 450.09L64.1091 450.077Z" fill="white"/>
</g>
</svg>
