<svg preserveAspectRatio="none" width="100%" height="100%" overflow="visible" style="display: block;" viewBox="0 0 241.784 234.051" fill="none" xmlns="http://www.w3.org/2000/svg">
<g id="Group">
<path id="Vector" d="M63.1493 98.1545L85.5272 75.7973L108.513 53.0154L125.225 69.5235L132.338 62.4866L108.672 39.0072L105.419 42.0941L59.1198 88.1689C54.2341 73.3562 54.3791 57.8563 60.1384 43.2922C64.8136 31.4628 72.6585 21.0386 82.8478 13.4043C96.1758 3.40835 112.687 -1.15632 129.14 0.248989C162.595 3.1114 188.916 30.4442 190.601 63.9817C191.095 73.7912 189.265 83.5697 185.539 92.9028L160.889 68.1907L147.561 54.9352L129.268 73.2353L92.388 110.219L81.8672 120.795C74.0845 114.67 67.7451 107.146 63.1459 98.158L63.1493 98.1545Z" fill="#213627"/>
<path id="Vector_2" d="M126.398 134.862C113.647 135.407 101.303 132.624 90.1814 126.323L135.103 81.6154L147.709 69.1402L180.978 102.263C176.403 109.915 170.27 116.572 163.002 121.872C152.353 129.786 139.83 134.247 126.402 134.862H126.398Z" fill="#D28923"/>
<path id="Vector_3" d="M92.9507 159.325L76.7707 187.514L68.4769 202.013C67.7794 203.235 66.4397 203.608 65.1415 203.539C63.8432 203.47 62.9282 202.572 62.1617 201.274L45.992 173.927L28.6069 202.106C27.8438 203.339 26.4903 203.67 25.1782 203.522C23.9421 203.384 23.0961 202.517 22.4332 201.27L6.71234 171.749L0 159.294L9.56439 159.27L25.9723 189.579L43.8408 160.461C44.3933 159.563 45.5983 159.356 46.5755 159.477C47.38 159.581 48.2329 160.216 48.7094 161.103L55.1455 172.135L65.6249 189.513L83.2137 159.291L92.9438 159.329L92.9507 159.325Z" fill="#213627"/>
<path id="Vector_4" d="M188.916 203.487V195.307L217.347 195.259C225.824 195.245 233.703 188.861 232.888 179.953C232.153 171.9 224.404 167.436 216.594 167.433L188.94 167.426L188.985 159.27L218.787 159.387C223.721 159.408 228.299 160.958 232.384 163.472C237.581 166.669 240.868 171.821 241.575 177.857C242.629 186.817 239.735 194.972 231.821 199.575C227.422 202.134 222.526 203.456 217.343 203.463L188.916 203.491V203.487Z" fill="#213627"/>
<path id="Vector_5" d="M176.662 195.29L176.696 203.473L133.477 203.48L133.48 159.325L142.185 159.27L142.178 195.269L176.662 195.29Z" fill="#213627"/>
<path id="Vector_6" d="M115.992 203.477H107.37V159.311L115.978 159.27L115.992 203.477Z" fill="#213627"/>
<path id="Vector_7" d="M99.8118 233.786L99.7496 223.113L95.6649 230.765L93.5897 230.823L89.3945 222.972L89.3703 233.765L86.5701 233.786V218.369L89.9988 218.296L94.6014 227.046L99.1833 218.414L102.691 218.303L102.688 233.751L99.8118 233.786Z" fill="#D28923"/>
<path id="Vector_8" d="M183.895 233.838L180.656 228.358L177.469 228.341L177.455 233.793L174.496 233.758V218.383L182.462 218.445C184.883 218.462 186.637 220.399 186.913 222.519C187.227 224.916 186.17 227.17 183.664 227.978L187.224 233.748L183.895 233.838ZM181.64 225.799C183.17 225.782 184.078 224.508 183.961 223.21C183.843 221.912 182.856 220.959 181.412 220.962L177.435 220.972L177.487 225.848L181.644 225.796L181.64 225.799Z" fill="#D28923"/>
<path id="Vector_9" d="M156.849 227.198L149.816 227.222L149.778 231.148L157.944 231.162L157.965 233.786L146.881 233.782V218.338L157.906 218.303L157.947 220.948L149.823 220.972L149.778 224.605L156.842 224.594L156.849 227.198Z" fill="#D28923"/>
<path id="Vector_10" d="M67.5655 230.35L60.7013 230.361L59.3616 233.793L56.2747 233.751L62.5727 218.386L65.8253 218.376L71.9403 233.738L68.8811 233.82L67.5621 230.354L67.5655 230.35ZM66.6022 227.888L64.1852 221.908L61.7095 227.906L66.6022 227.888Z" fill="#D28923"/>
<path id="Vector_11" d="M127.773 228.303C125.894 228.762 124.058 228.614 122.038 228.569L122.01 233.776L119.089 233.762V218.272L126.792 218.435C129.572 218.493 131.509 220.914 131.329 223.562C131.467 225.806 130.1 227.73 127.773 228.299V228.303ZM126.019 225.972C127.721 225.951 128.553 224.529 128.436 223.227C128.308 221.815 127.238 220.931 125.722 220.945L122.027 220.976L122.038 226.017L126.019 225.972Z" fill="#D28923"/>
<path id="Vector_12" d="M210.745 233.789C207.561 234.414 204.599 233.675 202.306 231.431L204.029 229.397C206.76 232.035 211.549 231.935 211.639 229.522C211.663 228.897 211.069 228.013 210.375 227.799L206.097 226.49C204.319 225.945 203.093 224.574 203.031 222.875C202.969 221.176 203.756 219.526 205.49 218.763C208.428 217.468 211.939 218.062 214.284 220.102L212.602 222.209C210.907 220.834 209.108 220.327 207.109 220.972C206.477 221.176 206.014 222.036 206.087 222.706C206.373 225.354 215.938 223.673 214.381 230.568C214.028 232.129 212.633 233.423 210.745 233.796V233.789Z" fill="#D28923"/>
<path id="Vector_13" d="M32.7087 229.629C34.9255 232.049 38.3921 231.548 40.4984 229.321L42.4009 231.231C39.3244 234.836 33.6583 235.032 30.4091 231.545C27.7228 228.658 27.602 223.918 30.1398 220.91C33.3268 217.133 39.1863 217.25 42.4458 220.665L40.3844 222.699C38.3093 220.413 34.9255 220.068 32.7916 222.309C30.9374 224.253 30.7993 227.55 32.7053 229.636L32.7087 229.629Z" fill="#D28923"/>
</g>
</svg>
