<svg viewBox="0 0 241.784 234.051" fill="none" xmlns="http://www.w3.org/2000/svg">
<g id="Group">
<path id="Vector" d="M63.1495 98.1545L85.5274 75.7973L108.513 53.0154L125.225 69.5235L132.338 62.4866L108.672 39.0072L105.419 42.0941L59.12 88.1689C54.2343 73.3562 54.3793 57.8563 60.1386 43.2922C64.8138 31.4628 72.6587 21.0386 82.848 13.4043C96.176 3.40835 112.688 -1.15632 129.14 0.248989C162.595 3.1114 188.916 30.4442 190.601 63.9817C191.095 73.7912 189.265 83.5697 185.539 92.9028L160.889 68.1907L147.561 54.9352L129.268 73.2353L92.3883 110.219L81.8674 120.795C74.0847 114.67 67.7453 107.146 63.1461 98.158L63.1495 98.1545Z" fill="white"/>
<path id="Vector_2" d="M126.399 134.862C113.647 135.407 101.303 132.624 90.1816 126.323L135.103 81.6154L147.71 69.1402L180.978 102.263C176.403 109.915 170.27 116.572 163.002 121.872C152.354 129.786 139.83 134.247 126.402 134.862H126.399Z" fill="white"/>
<path id="Vector_3" d="M92.9509 159.325L76.7709 187.514L68.4771 202.013C67.7797 203.235 66.4399 203.608 65.1417 203.539C63.8434 203.47 62.9284 202.572 62.1619 201.274L45.9922 173.927L28.6071 202.106C27.844 203.339 26.4905 203.67 25.1784 203.522C23.9423 203.384 23.0963 202.517 22.4334 201.27L6.71255 171.749L0.000208384 159.294L9.5646 159.27L25.9725 189.579L43.841 160.461C44.3935 159.563 45.5985 159.356 46.5757 159.477C47.3802 159.581 48.2331 160.216 48.7096 161.103L55.1457 172.135L65.6251 189.513L83.2139 159.291L92.944 159.329L92.9509 159.325Z" fill="white"/>
<path id="Vector_4" d="M188.916 203.487V195.307L217.347 195.259C225.824 195.245 233.703 188.861 232.888 179.953C232.153 171.9 224.405 167.436 216.594 167.433L188.94 167.426L188.985 159.27L218.787 159.387C223.721 159.408 228.299 160.958 232.384 163.472C237.581 166.669 240.868 171.821 241.576 177.857C242.629 186.817 239.735 194.972 231.821 199.575C227.422 202.134 222.526 203.456 217.344 203.463L188.916 203.491V203.487Z" fill="white"/>
<path id="Vector_5" d="M176.662 195.29L176.696 203.473L133.477 203.48L133.481 159.325L142.185 159.27L142.178 195.269L176.662 195.29Z" fill="white"/>
<path id="Vector_6" d="M115.992 203.477H107.37V159.311L115.978 159.27L115.992 203.477Z" fill="white"/>
<path id="Vector_7" d="M99.812 233.786L99.7498 223.113L95.6651 230.765L93.5899 230.823L89.3947 222.972L89.3706 233.765L86.5703 233.786V218.369L89.999 218.296L94.6016 227.046L99.1836 218.414L102.692 218.303L102.688 233.751L99.812 233.786Z" fill="white"/>
<path id="Vector_8" d="M183.895 233.838L180.656 228.358L177.469 228.341L177.456 233.793L174.497 233.758V218.383L182.462 218.445C184.883 218.462 186.637 220.399 186.913 222.519C187.227 224.916 186.171 227.17 183.664 227.978L187.224 233.748L183.895 233.838ZM181.641 225.799C183.17 225.782 184.078 224.508 183.961 223.21C183.843 221.912 182.856 220.959 181.413 220.962L177.435 220.972L177.487 225.848L181.644 225.796L181.641 225.799Z" fill="white"/>
<path id="Vector_9" d="M156.85 227.198L149.816 227.222L149.778 231.148L157.944 231.162L157.965 233.786L146.881 233.782V218.338L157.906 218.303L157.948 220.948L149.823 220.972L149.778 224.605L156.843 224.594L156.85 227.198Z" fill="white"/>
<path id="Vector_10" d="M67.5657 230.35L60.7015 230.361L59.3618 233.793L56.2749 233.751L62.5729 218.386L65.8255 218.376L71.9405 233.738L68.8813 233.82L67.5623 230.354L67.5657 230.35ZM66.6024 227.888L64.1854 221.908L61.7097 227.906L66.6024 227.888Z" fill="white"/>
<path id="Vector_11" d="M127.773 228.303C125.895 228.762 124.058 228.614 122.038 228.569L122.01 233.776L119.089 233.762V218.272L126.792 218.435C129.572 218.493 131.509 220.914 131.329 223.562C131.468 225.806 130.1 227.73 127.773 228.299V228.303ZM126.019 225.972C127.721 225.951 128.553 224.529 128.436 223.227C128.308 221.815 127.238 220.931 125.722 220.945L122.028 220.976L122.038 226.017L126.019 225.972Z" fill="white"/>
<path id="Vector_12" d="M210.745 233.789C207.561 234.414 204.599 233.675 202.306 231.431L204.029 229.397C206.76 232.035 211.549 231.935 211.639 229.522C211.663 228.897 211.07 228.013 210.375 227.799L206.097 226.49C204.319 225.945 203.093 224.574 203.031 222.875C202.969 221.176 203.756 219.526 205.49 218.763C208.428 217.468 211.94 218.062 214.284 220.102L212.603 222.209C210.907 220.834 209.108 220.327 207.109 220.972C206.477 221.176 206.015 222.036 206.087 222.706C206.374 225.354 215.938 223.673 214.381 230.568C214.029 232.129 212.634 233.423 210.745 233.796V233.789Z" fill="white"/>
<path id="Vector_13" d="M32.709 229.629C34.9257 232.049 38.3923 231.548 40.4986 229.321L42.4011 231.231C39.3246 234.836 33.6585 235.032 30.4094 231.545C27.723 228.658 27.6022 223.918 30.14 220.91C33.327 217.133 39.1865 217.25 42.446 220.665L40.3846 222.699C38.3095 220.413 34.9257 220.068 32.7918 222.309C30.9376 224.253 30.7995 227.55 32.7055 229.636L32.709 229.629Z" fill="white"/>
</g>
</svg>
